<svg width="757" height="369" viewBox="0 0 757 369" fill="none" xmlns="http://www.w3.org/2000/svg">
<path d="M69.9419 128.771C70.6101 122.346 70.8638 116.057 72.3738 109.958C72.5491 109.98 72.7245 110.001 72.8999 110.023C72.7206 112.881 72.4939 115.737 72.3699 118.598C71.6231 135.832 73.3877 152.739 79.3495 169.029C89.0991 195.669 107.475 213.269 134.718 221.47C135.204 221.616 135.708 221.696 136.106 222.241C135.543 222.922 134.778 222.644 134.156 222.531C112.002 218.511 93.9541 208.077 81.8237 188.637C75.8793 179.11 72.5624 168.608 70.8443 157.534C69.3705 148.035 69.1398 138.526 69.9419 128.771Z" fill="#91C53C"/>
<path d="M69.9419 128.771C70.6101 122.346 70.8638 116.057 72.3738 109.958C72.5491 109.98 72.7245 110.001 72.8999 110.023C72.7206 112.881 72.4939 115.737 72.3699 118.598C71.6231 135.832 73.3877 152.739 79.3495 169.029C89.0991 195.669 107.475 213.269 134.718 221.47C135.204 221.616 135.708 221.696 136.106 222.241C135.543 222.922 134.778 222.644 134.156 222.531C112.002 218.511 93.9541 208.077 81.8237 188.637C75.8793 179.11 72.5624 168.608 70.8443 157.534C69.3705 148.035 69.1398 138.526 69.9419 128.771Z" fill="#91C53C"/>
<path d="M205.541 114.375C203.634 125.438 200.889 136.079 196.509 146.244C190.511 160.165 182.08 172.338 170.456 182.189C170.181 182.422 169.893 182.646 169.583 182.828C169.408 182.931 169.177 182.939 168.664 183.066C168.358 180.922 168.081 178.823 167.757 176.732C165.733 163.671 160.981 151.754 152.76 141.327C147.952 135.229 142.195 130.17 135.451 126.311C133.669 125.291 133.235 124.358 134.017 122.357C140.057 106.895 146.37 91.5536 153.562 76.5845C153.812 76.065 154.034 75.5327 154.294 74.9525C153.3 74.8435 153.09 75.6686 152.75 76.1698C145.389 87.033 138.068 97.9225 132.006 109.593C130.602 112.296 129.231 115.019 128.278 117.916C127.811 119.333 127.203 119.554 125.908 118.8C112.589 111.046 98.6373 104.663 84.091 99.5646C81.381 98.6148 78.5198 98.092 75.6977 96.7112C76.4182 96.0945 77.0111 96.3263 77.5909 96.4569C82.1813 97.4911 86.7875 98.4615 91.3532 99.5949C92.7229 99.935 93.3877 99.86 93.9292 98.374C103.4 72.3826 120.209 51.7037 140.907 33.8989C156.575 20.4207 174.161 9.95778 192.877 1.32294C193.779 0.90687 194.627 0.27443 195.882 0.324035C197.03 2.22383 197.293 4.48149 197.874 6.61316C201.588 20.2521 204.16 34.1301 205.888 48.1385C207.888 64.3437 208.628 80.6341 207.539 96.9524C207.154 102.72 206.575 108.487 205.541 114.375Z" fill="#91C53C"/>
<path d="M205.541 114.375C203.634 125.438 200.889 136.079 196.509 146.244C190.511 160.165 182.08 172.338 170.456 182.189C170.181 182.422 169.893 182.646 169.583 182.828C169.408 182.931 169.177 182.939 168.664 183.066C168.358 180.922 168.081 178.823 167.757 176.732C165.733 163.671 160.981 151.754 152.76 141.327C147.952 135.229 142.195 130.17 135.451 126.311C133.669 125.291 133.235 124.358 134.017 122.357C140.057 106.895 146.37 91.5536 153.562 76.5845C153.812 76.065 154.034 75.5327 154.294 74.9525C153.3 74.8435 153.09 75.6686 152.75 76.1698C145.389 87.033 138.068 97.9225 132.006 109.593C130.602 112.296 129.231 115.019 128.278 117.916C127.811 119.333 127.203 119.554 125.908 118.8C112.589 111.046 98.6373 104.663 84.091 99.5646C81.381 98.6148 78.5198 98.092 75.6977 96.7112C76.4182 96.0945 77.0111 96.3263 77.5909 96.4569C82.1813 97.4911 86.7875 98.4615 91.3532 99.5949C92.7229 99.935 93.3877 99.86 93.9292 98.374C103.4 72.3826 120.209 51.7037 140.907 33.8989C156.575 20.4207 174.161 9.95778 192.877 1.32294C193.779 0.90687 194.627 0.27443 195.882 0.324035C197.03 2.22383 197.293 4.48149 197.874 6.61316C201.588 20.2521 204.16 34.1301 205.888 48.1385C207.888 64.3437 208.628 80.6341 207.539 96.9524C207.154 102.72 206.575 108.487 205.541 114.375Z" fill="#91C53C"/>
<path d="M159.055 213.616C159.055 213.616 156.05 216.814 154.239 219.434C152.894 221.378 151.954 222.774 150.655 225.392C144.524 190.608 131.782 159.386 107.443 133.631C109.113 133.784 110.031 134.944 111.056 135.862C119.906 143.791 127.349 152.924 133.951 162.767C144.342 178.258 152.13 195.036 158.533 212.499C158.748 213.086 159.055 213.616 159.055 213.616Z" fill="#206B46"/>
<path d="M159.055 213.616C159.055 213.616 156.05 216.814 154.239 219.434C152.894 221.378 151.954 222.774 150.655 225.392C144.524 190.608 131.782 159.386 107.443 133.631C109.113 133.784 110.031 134.944 111.056 135.862C119.906 143.791 127.349 152.924 133.951 162.767C144.342 178.258 152.13 195.036 158.533 212.499C158.748 213.086 159.055 213.616 159.055 213.616Z" fill="#206B46"/>
<path d="M276.294 340.675L280.855 359.446C272.537 363.736 255.094 368.027 233.09 368.027C182.105 368.027 144 335.848 144 276.318C144 219.469 182.373 181.391 238.457 181.391C260.73 181.391 275.22 186.218 281.392 189.436L275.489 208.475C266.902 204.184 254.289 200.967 239.262 200.967C196.864 200.967 168.688 228.05 168.688 275.514C168.688 320.027 194.18 348.183 237.92 348.183C252.411 348.183 266.902 345.234 276.294 340.675Z" fill="#206B46"/>
<path d="M393.893 285.435V333.971C393.893 345.234 394.43 356.228 395.772 365.077H374.572L372.694 348.72H371.889C364.644 358.91 350.69 368.027 332.174 368.027C305.876 368.027 292.459 349.524 292.459 330.753C292.459 299.379 320.367 282.217 370.547 282.486V279.804C370.547 269.346 367.595 249.771 341.029 250.039C328.686 250.039 316.073 253.525 306.95 259.692L301.583 243.871C312.317 237.167 328.149 232.609 344.518 232.609C384.233 232.609 393.893 259.692 393.893 285.435ZM371.084 321.368V298.843C345.323 298.307 316.073 302.865 316.073 328.072C316.073 343.625 326.271 350.597 338.078 350.597C355.252 350.597 366.254 339.871 370.011 328.876C370.816 326.195 371.084 323.513 371.084 321.368Z" fill="#206B46"/>
<path d="M431.331 211.156L454.409 204.184V235.29H488.22V253.257H454.409V323.245C454.409 339.334 458.971 348.452 472.12 348.452C478.56 348.452 482.317 347.915 485.805 346.843L486.879 364.809C482.317 366.418 475.071 368.027 465.948 368.027C454.946 368.027 446.09 364.273 440.455 358.105C434.015 350.865 431.331 339.334 431.331 324.05V253.257H411.206V235.29H431.331V211.156Z" fill="#206B46"/>
<path d="M515.069 211.156L538.147 204.184V235.29H571.958V253.257H538.147V323.245C538.147 339.334 542.709 348.452 555.858 348.452C562.298 348.452 566.055 347.915 569.543 346.843L570.617 364.809C566.055 366.418 558.809 368.027 549.686 368.027C538.684 368.027 529.828 364.273 524.193 358.105C517.753 350.865 515.069 339.334 515.069 324.05V253.257H494.944V235.29H515.069V211.156Z" fill="#206B46"/>
<path d="M593.44 365.077V174.687H617.055V365.077H593.44Z" fill="#206B46"/>
<path d="M756.145 304.474H664.908C665.445 336.385 685.57 349.524 709.453 349.524C726.359 349.524 736.824 346.575 745.411 342.82L749.705 359.714C741.386 363.468 726.895 368.027 706.233 368.027C666.25 368.027 642.367 341.48 642.367 302.329C642.367 263.178 665.445 232.609 703.281 232.609C745.948 232.609 756.95 269.614 756.95 293.48C756.95 298.307 756.682 301.793 756.145 304.474ZM665.176 287.581H734.141C734.409 272.832 727.969 249.503 701.403 249.503C677.252 249.503 667.055 271.223 665.176 287.581Z" fill="#206B46"/>
<path d="M276.294 340.675L280.855 359.446C272.537 363.736 255.094 368.027 233.09 368.027C182.105 368.027 144 335.848 144 276.318C144 219.469 182.373 181.391 238.457 181.391C260.73 181.391 275.22 186.218 281.392 189.436L275.489 208.475C266.902 204.184 254.289 200.967 239.262 200.967C196.864 200.967 168.688 228.05 168.688 275.514C168.688 320.027 194.18 348.183 237.92 348.183C252.411 348.183 266.902 345.234 276.294 340.675Z" fill="#206B46"/>
<path d="M393.893 285.435V333.971C393.893 345.234 394.43 356.228 395.772 365.077H374.572L372.694 348.72H371.889C364.644 358.91 350.69 368.027 332.174 368.027C305.876 368.027 292.459 349.524 292.459 330.753C292.459 299.379 320.367 282.217 370.547 282.486V279.804C370.547 269.346 367.595 249.771 341.029 250.039C328.686 250.039 316.073 253.525 306.95 259.692L301.583 243.871C312.317 237.167 328.149 232.609 344.518 232.609C384.233 232.609 393.893 259.692 393.893 285.435ZM371.084 321.368V298.843C345.323 298.307 316.073 302.865 316.073 328.072C316.073 343.625 326.271 350.597 338.078 350.597C355.252 350.597 366.254 339.871 370.011 328.876C370.816 326.195 371.084 323.513 371.084 321.368Z" fill="#206B46"/>
<path d="M431.331 211.156L454.409 204.184V235.29H488.22V253.257H454.409V323.245C454.409 339.334 458.971 348.452 472.12 348.452C478.56 348.452 482.317 347.915 485.805 346.843L486.879 364.809C482.317 366.418 475.071 368.027 465.948 368.027C454.946 368.027 446.09 364.273 440.455 358.105C434.015 350.865 431.331 339.334 431.331 324.05V253.257H411.206V235.29H431.331V211.156Z" fill="#206B46"/>
<path d="M515.069 211.156L538.147 204.184V235.29H571.958V253.257H538.147V323.245C538.147 339.334 542.709 348.452 555.858 348.452C562.298 348.452 566.055 347.915 569.543 346.843L570.617 364.809C566.055 366.418 558.809 368.027 549.686 368.027C538.684 368.027 529.828 364.273 524.193 358.105C517.753 350.865 515.069 339.334 515.069 324.05V253.257H494.944V235.29H515.069V211.156Z" fill="#206B46"/>
<path d="M593.44 365.077V174.687H617.055V365.077H593.44Z" fill="#206B46"/>
<path d="M756.145 304.474H664.908C665.445 336.385 685.57 349.524 709.453 349.524C726.359 349.524 736.824 346.575 745.411 342.82L749.705 359.714C741.386 363.468 726.895 368.027 706.233 368.027C666.25 368.027 642.367 341.48 642.367 302.329C642.367 263.178 665.445 232.609 703.281 232.609C745.948 232.609 756.95 269.614 756.95 293.48C756.95 298.307 756.682 301.793 756.145 304.474ZM665.176 287.581H734.141C734.409 272.832 727.969 249.503 701.403 249.503C677.252 249.503 667.055 271.223 665.176 287.581Z" fill="#206B46"/>
<path d="M126 286.687C131.469 286.554 140.5 286.687 140.5 286.687C140.5 286.687 140 292.687 144 306.687C134.772 296.65 123.461 290.756 110.5 287.687C114.5 287.187 119.726 286.841 126 286.687Z" fill="#91C53C"/>
<path d="M86.4018 337.784L89.5247 353.873C80.1559 359.322 64.8013 363.993 47.8853 363.993C14.5738 363.993 0 341.157 0 313.391C0 275.504 28.1066 232.687 68.705 232.687C92.6477 232.687 105.66 246.96 105.66 264.865C105.66 297.821 68.4448 306.644 21.8607 305.866C20.8197 311.315 21.6004 322.992 24.4632 329.739C29.4078 340.898 39.5574 346.607 52.5698 346.607C67.4038 346.607 78.5944 341.936 86.4018 337.784ZM84.8403 265.643V265.384C84.8403 255.264 77.0329 249.555 65.5821 249.555C45.0226 249.555 29.6681 269.536 24.4632 289.258C58.2952 289.517 84.8403 285.106 84.8403 265.643Z" fill="#91C53C"/>
<path d="M304.856 178.152C297.944 178.152 292.056 176.744 287.192 173.928C282.328 171.048 278.648 167.016 276.152 161.832C273.656 156.648 272.408 150.568 272.408 143.592C272.408 136.616 273.656 130.536 276.152 125.352C278.712 120.168 282.424 116.168 287.288 113.352C292.216 110.472 298.136 109.032 305.048 109.032C308.376 109.032 311.64 109.416 314.84 110.184C318.04 110.888 320.92 111.976 323.48 113.448V124.008H323.096C320.792 122.28 318.104 120.904 315.032 119.88C312.024 118.856 308.92 118.344 305.72 118.344C298.488 118.344 292.952 120.584 289.112 125.064C285.336 129.48 283.448 135.656 283.448 143.592C283.448 151.528 285.304 157.736 289.016 162.216C292.792 166.632 298.264 168.84 305.432 168.84C308.632 168.84 311.768 168.328 314.84 167.304C317.912 166.216 320.664 164.712 323.096 162.792H323.48V173.352C318.168 176.552 311.96 178.152 304.856 178.152ZM367.71 125.736V136.488H366.174C360.67 136.488 356.254 138.216 352.926 141.672V177H342.558V138.024L340.446 126.888H350.814L352.35 134.76C354.718 131.368 356.798 129.032 358.59 127.752C360.382 126.408 362.398 125.736 364.638 125.736H367.71ZM423.043 155.208H387.811C388.323 159.624 389.859 163.112 392.419 165.672C395.043 168.168 398.563 169.416 402.979 169.416C405.859 169.416 408.803 168.872 411.811 167.784C414.819 166.632 417.731 165 420.547 162.888H420.931V172.2C415.619 176.168 409.603 178.152 402.883 178.152C397.699 178.152 393.187 177.064 389.347 174.888C385.507 172.712 382.563 169.64 380.515 165.672C378.467 161.64 377.443 157 377.443 151.752C377.443 146.696 378.371 142.216 380.227 138.312C382.147 134.344 384.867 131.272 388.387 129.096C391.907 126.856 396.003 125.736 400.675 125.736C405.283 125.736 409.251 126.856 412.579 129.096C415.971 131.272 418.563 134.344 420.355 138.312C422.147 142.28 423.043 146.824 423.043 151.944V155.208ZM400.675 134.184C397.155 134.184 394.275 135.432 392.035 137.928C389.795 140.36 388.419 143.624 387.907 147.72H412.387C411.875 143.496 410.627 140.2 408.643 137.832C406.723 135.4 404.067 134.184 400.675 134.184ZM468.798 177L467.55 170.376C462.75 175.56 456.99 178.152 450.27 178.152C445.534 178.152 441.662 176.872 438.654 174.312C435.646 171.688 434.142 168.232 434.142 163.944C434.142 158.376 436.318 154.184 440.67 151.368C445.022 148.488 450.878 147.048 458.238 147.048C461.246 147.048 464.062 147.176 466.686 147.432V144.744C466.686 141.544 465.79 139.08 463.998 137.352C462.27 135.624 459.806 134.76 456.606 134.76C453.086 134.76 449.854 135.272 446.91 136.296C444.03 137.32 440.99 138.952 437.79 141.192V131.592C440.734 129.48 443.774 127.976 446.91 127.08C450.11 126.184 453.694 125.736 457.662 125.736C463.678 125.736 468.414 127.336 471.87 130.536C475.326 133.672 477.054 138.024 477.054 143.592V165.864L479.166 177H468.798ZM452.094 169.896C454.846 169.896 457.374 169.32 459.678 168.168C462.046 166.952 464.382 165.192 466.686 162.888V154.728H457.662C453.63 154.728 450.494 155.368 448.254 156.648C446.014 157.928 444.894 160.104 444.894 163.176C444.894 165.288 445.534 166.952 446.814 168.168C448.094 169.32 449.854 169.896 452.094 169.896ZM505.861 126.888H518.629V135.144H505.861V161.832C505.861 164.2 506.341 166.056 507.301 167.4C508.325 168.744 509.829 169.416 511.813 169.416C513.861 169.416 516.165 168.808 518.725 167.592V176.424C516.037 177.576 512.997 178.152 509.605 178.152C505.061 178.152 501.573 176.776 499.141 174.024C496.709 171.272 495.493 167.368 495.493 162.312V135.144H486.949V126.888H495.493V113.448L505.861 109.032V126.888ZM574.731 155.208H539.499C540.011 159.624 541.547 163.112 544.107 165.672C546.731 168.168 550.251 169.416 554.667 169.416C557.547 169.416 560.491 168.872 563.499 167.784C566.507 166.632 569.419 165 572.235 162.888H572.619V172.2C567.307 176.168 561.291 178.152 554.571 178.152C549.387 178.152 544.875 177.064 541.035 174.888C537.195 172.712 534.251 169.64 532.203 165.672C530.155 161.64 529.131 157 529.131 151.752C529.131 146.696 530.059 142.216 531.915 138.312C533.835 134.344 536.555 131.272 540.075 129.096C543.595 126.856 547.691 125.736 552.363 125.736C556.971 125.736 560.939 126.856 564.267 129.096C567.659 131.272 570.251 134.344 572.043 138.312C573.835 142.28 574.731 146.824 574.731 151.944V155.208ZM552.363 134.184C548.843 134.184 545.963 135.432 543.723 137.928C541.483 140.36 540.107 143.624 539.595 147.72H564.075C563.563 143.496 562.315 140.2 560.331 137.832C558.411 135.4 555.755 134.184 552.363 134.184Z" fill="#91C53C"/>
</svg>
